<svg width="311" height="343" viewBox="0 0 311 343" fill="none" xmlns="http://www.w3.org/2000/svg">
<rect x="0.5" y="84.5" width="310" height="222" fill="white" stroke="#0500FF"/>
<mask id="path-2-inside-1_122_70" fill="white">
<path d="M304 84C304 101.203 300.159 118.238 292.696 134.132C285.233 150.025 274.295 164.467 260.505 176.631C246.716 188.795 230.345 198.445 212.328 205.028C194.312 211.612 175.001 215 155.5 215C135.999 215 116.688 211.612 98.6715 205.028C80.6547 198.445 64.2841 188.795 50.4946 176.631C36.7051 164.467 25.7667 150.025 18.3039 134.132C10.8411 118.238 7 101.203 7 84L155.5 84H304Z"/>
</mask>
<path d="M304 84C304 101.203 300.159 118.238 292.696 134.132C285.233 150.025 274.295 164.467 260.505 176.631C246.716 188.795 230.345 198.445 212.328 205.028C194.312 211.612 175.001 215 155.5 215C135.999 215 116.688 211.612 98.6715 205.028C80.6547 198.445 64.2841 188.795 50.4946 176.631C36.7051 164.467 25.7667 150.025 18.3039 134.132C10.8411 118.238 7 101.203 7 84L155.5 84H304Z" fill="white" stroke="#0500FF" stroke-width="2" mask="url(#path-2-inside-1_122_70)"/>
<mask id="path-3-inside-2_122_70" fill="white">
<path d="M179 170.565C179 176.25 176.524 181.702 172.117 185.722C167.71 189.742 161.733 192 155.5 192C149.267 192 143.29 189.742 138.883 185.722C134.476 181.702 132 176.25 132 170.565L155.5 170.565H179Z"/>
</mask>
<path d="M179 170.565C179 176.25 176.524 181.702 172.117 185.722C167.71 189.742 161.733 192 155.5 192C149.267 192 143.29 189.742 138.883 185.722C134.476 181.702 132 176.25 132 170.565L155.5 170.565H179Z" fill="white" stroke="#0500FF" stroke-width="2" mask="url(#path-3-inside-2_122_70)"/>
<rect x="125.5" y="84.5" width="60" height="86.3893" stroke="#0500FF"/>
<circle cx="155" cy="104" r="8.5" fill="white" stroke="#0500FF"/>
<line x1="138" y1="94.5" x2="172" y2="94.5" stroke="#0500FF"/>
<mask id="path-7-inside-3_122_70" fill="white">
<path d="M114 306.5C114 296.82 118.372 287.536 126.155 280.691C133.938 273.846 144.494 270 155.5 270C166.506 270 177.062 273.846 184.845 280.691C192.628 287.536 197 296.82 197 306.5L155.5 306.5H114Z"/>
</mask>
<path d="M114 306.5C114 296.82 118.372 287.536 126.155 280.691C133.938 273.846 144.494 270 155.5 270C166.506 270 177.062 273.846 184.845 280.691C192.628 287.536 197 296.82 197 306.5L155.5 306.5H114Z" fill="white" stroke="#0500FF" stroke-width="2" mask="url(#path-7-inside-3_122_70)"/>
<path d="M212.5 215.5C219.127 215.5 224.5 220.873 224.5 227.5C224.5 234.127 219.127 239.5 212.5 239.5C205.873 239.5 200.5 234.127 200.5 227.5C200.5 220.873 205.873 215.5 212.5 215.5Z" stroke="#1261FF"/>
<path d="M206.881 232V224.727H209.338C209.909 224.727 210.375 224.83 210.737 225.036C211.102 225.24 211.372 225.516 211.547 225.864C211.722 226.212 211.81 226.6 211.81 227.028C211.81 227.457 211.722 227.846 211.547 228.197C211.374 228.547 211.107 228.826 210.744 229.035C210.382 229.241 209.918 229.344 209.352 229.344H207.591V228.562H209.324C209.714 228.562 210.028 228.495 210.265 228.36C210.502 228.225 210.673 228.043 210.78 227.813C210.889 227.581 210.943 227.32 210.943 227.028C210.943 226.737 210.889 226.477 210.78 226.247C210.673 226.018 210.5 225.838 210.261 225.707C210.022 225.575 209.705 225.509 209.31 225.509H207.761V232H206.881ZM218.2 227C218.122 226.761 218.019 226.547 217.891 226.357C217.766 226.165 217.615 226.002 217.44 225.867C217.267 225.732 217.071 225.629 216.85 225.558C216.63 225.487 216.389 225.452 216.126 225.452C215.695 225.452 215.303 225.563 214.951 225.786C214.598 226.008 214.317 226.336 214.109 226.769C213.901 227.202 213.797 227.734 213.797 228.364C213.797 228.993 213.902 229.525 214.113 229.958C214.323 230.391 214.609 230.719 214.968 230.942C215.328 231.164 215.733 231.276 216.183 231.276C216.6 231.276 216.967 231.187 217.284 231.009C217.603 230.829 217.852 230.576 218.029 230.249C218.209 229.92 218.299 229.533 218.299 229.088L218.569 229.145H216.382V228.364H219.152V229.145C219.152 229.744 219.024 230.265 218.768 230.707C218.515 231.15 218.164 231.493 217.717 231.737C217.272 231.979 216.761 232.099 216.183 232.099C215.539 232.099 214.973 231.948 214.485 231.645C214 231.342 213.621 230.911 213.349 230.352C213.079 229.794 212.944 229.131 212.944 228.364C212.944 227.788 213.021 227.271 213.175 226.812C213.331 226.35 213.551 225.957 213.836 225.633C214.12 225.308 214.456 225.06 214.844 224.887C215.232 224.714 215.66 224.628 216.126 224.628C216.51 224.628 216.867 224.686 217.199 224.802C217.532 224.915 217.829 225.078 218.09 225.288C218.353 225.497 218.572 225.746 218.747 226.038C218.922 226.326 219.043 226.647 219.109 227H218.2Z" fill="#1261FF"/>
<path d="M287.5 102.5C294.127 102.5 299.5 107.873 299.5 114.5C299.5 121.127 294.127 126.5 287.5 126.5C280.873 126.5 275.5 121.127 275.5 114.5C275.5 107.873 280.873 102.5 287.5 102.5Z" stroke="#1261FF"/>
<path d="M285.858 113.545C285.815 113.186 285.643 112.906 285.339 112.707C285.036 112.509 284.665 112.409 284.224 112.409C283.902 112.409 283.621 112.461 283.379 112.565C283.14 112.67 282.953 112.813 282.818 112.995C282.686 113.177 282.619 113.384 282.619 113.616C282.619 113.811 282.665 113.978 282.758 114.117C282.853 114.254 282.973 114.369 283.12 114.462C283.267 114.552 283.421 114.626 283.582 114.685C283.743 114.742 283.891 114.788 284.026 114.824L284.764 115.023C284.954 115.072 285.164 115.141 285.396 115.229C285.631 115.316 285.854 115.436 286.067 115.587C286.283 115.737 286.46 115.928 286.6 116.163C286.74 116.397 286.81 116.685 286.81 117.026C286.81 117.419 286.707 117.774 286.501 118.091C286.297 118.408 285.999 118.66 285.606 118.847C285.215 119.034 284.741 119.128 284.182 119.128C283.661 119.128 283.21 119.044 282.829 118.876C282.45 118.708 282.152 118.473 281.934 118.173C281.719 117.872 281.597 117.523 281.568 117.125H282.477C282.501 117.4 282.593 117.627 282.754 117.807C282.918 117.984 283.124 118.117 283.372 118.205C283.623 118.29 283.893 118.332 284.182 118.332C284.518 118.332 284.82 118.278 285.087 118.169C285.355 118.058 285.567 117.904 285.723 117.707C285.879 117.509 285.957 117.277 285.957 117.011C285.957 116.77 285.89 116.573 285.755 116.422C285.62 116.27 285.442 116.147 285.222 116.053C285.002 115.958 284.764 115.875 284.509 115.804L283.614 115.548C283.045 115.385 282.596 115.152 282.264 114.849C281.933 114.546 281.767 114.149 281.767 113.659C281.767 113.252 281.877 112.897 282.097 112.594C282.32 112.288 282.618 112.052 282.992 111.884C283.369 111.713 283.789 111.628 284.253 111.628C284.722 111.628 285.138 111.712 285.503 111.88C285.867 112.046 286.156 112.273 286.369 112.562C286.585 112.851 286.698 113.179 286.71 113.545H285.858ZM288.258 119V111.727H292.618V112.509H289.138V114.966H292.292V115.747H289.138V119H288.258Z" fill="#1261FF"/>
<path d="M50.5 196.5C57.1274 196.5 62.5 201.873 62.5 208.5C62.5 215.127 57.1274 220.5 50.5 220.5C43.8726 220.5 38.5 215.127 38.5 208.5C38.5 201.873 43.8726 196.5 50.5 196.5Z" stroke="#1261FF"/>
<path d="M48.858 207.545C48.8153 207.186 48.6425 206.906 48.3395 206.707C48.0365 206.509 47.6648 206.409 47.2244 206.409C46.9025 206.409 46.6207 206.461 46.3793 206.565C46.1402 206.67 45.9531 206.813 45.8182 206.995C45.6856 207.177 45.6193 207.384 45.6193 207.616C45.6193 207.811 45.6655 207.978 45.7578 208.117C45.8525 208.254 45.9732 208.369 46.12 208.462C46.2668 208.552 46.4207 208.626 46.5817 208.685C46.7427 208.742 46.8906 208.788 47.0256 208.824L47.7642 209.023C47.9536 209.072 48.1643 209.141 48.3963 209.229C48.6307 209.316 48.8544 209.436 49.0675 209.587C49.2829 209.737 49.4605 209.928 49.6001 210.163C49.7398 210.397 49.8097 210.685 49.8097 211.026C49.8097 211.419 49.7067 211.774 49.5007 212.091C49.2971 212.408 48.9988 212.66 48.6058 212.847C48.2152 213.034 47.7405 213.128 47.1818 213.128C46.661 213.128 46.21 213.044 45.8288 212.876C45.45 212.708 45.1518 212.473 44.9339 212.173C44.7185 211.872 44.5966 211.523 44.5682 211.125H45.4773C45.5009 211.4 45.5933 211.627 45.7543 211.807C45.9176 211.984 46.1236 212.117 46.3722 212.205C46.6231 212.29 46.893 212.332 47.1818 212.332C47.518 212.332 47.8198 212.278 48.0874 212.169C48.3549 212.058 48.5668 211.904 48.723 211.707C48.8793 211.509 48.9574 211.277 48.9574 211.011C48.9574 210.77 48.8899 210.573 48.755 210.422C48.62 210.27 48.4425 210.147 48.2223 210.053C48.0021 209.958 47.7642 209.875 47.5085 209.804L46.6136 209.548C46.0455 209.385 45.5956 209.152 45.2642 208.849C44.9328 208.546 44.767 208.149 44.767 207.659C44.767 207.252 44.8771 206.897 45.0973 206.594C45.3198 206.288 45.6181 206.052 45.9922 205.884C46.3686 205.713 46.7888 205.628 47.2528 205.628C47.7216 205.628 48.1383 205.712 48.5028 205.88C48.8674 206.046 49.1563 206.273 49.3693 206.562C49.5848 206.851 49.6984 207.179 49.7102 207.545H48.858ZM56.2292 208C56.1511 207.761 56.0481 207.547 55.9203 207.357C55.7948 207.165 55.6445 207.002 55.4693 206.867C55.2965 206.732 55.1 206.629 54.8798 206.558C54.6596 206.487 54.4181 206.452 54.1554 206.452C53.7245 206.452 53.3327 206.563 52.9799 206.786C52.6272 207.008 52.3467 207.336 52.1383 207.769C51.93 208.202 51.8258 208.734 51.8258 209.364C51.8258 209.993 51.9312 210.525 52.1419 210.958C52.3526 211.391 52.6378 211.719 52.9977 211.942C53.3575 212.164 53.7624 212.276 54.2122 212.276C54.6288 212.276 54.9958 212.187 55.313 212.009C55.6326 211.829 55.8812 211.576 56.0588 211.249C56.2387 210.92 56.3287 210.533 56.3287 210.088L56.5985 210.145H54.411V209.364H57.1809V210.145C57.1809 210.744 57.0531 211.265 56.7974 211.707C56.5441 212.15 56.1937 212.493 55.7463 212.737C55.3012 212.979 54.7898 213.099 54.2122 213.099C53.5682 213.099 53.0024 212.948 52.5147 212.645C52.0294 212.342 51.6506 211.911 51.3784 211.352C51.1085 210.794 50.9735 210.131 50.9735 209.364C50.9735 208.788 51.0505 208.271 51.2044 207.812C51.3606 207.35 51.5808 206.957 51.8649 206.633C52.149 206.308 52.4851 206.06 52.8734 205.887C53.2617 205.714 53.689 205.628 54.1554 205.628C54.5389 205.628 54.8964 205.686 55.2278 205.802C55.5616 205.915 55.8587 206.078 56.1191 206.288C56.3819 206.497 56.6009 206.746 56.7761 207.038C56.9513 207.326 57.072 207.647 57.1383 208H56.2292Z" fill="#1261FF"/>
<path d="M105.5 124.5C112.127 124.5 117.5 129.873 117.5 136.5C117.5 143.127 112.127 148.5 105.5 148.5C98.8726 148.5 93.5 143.127 93.5 136.5C93.5 129.873 98.8726 124.5 105.5 124.5Z" stroke="#1261FF"/>
<path d="M99.8807 141V133.727H102.338C102.909 133.727 103.375 133.83 103.737 134.036C104.102 134.24 104.372 134.516 104.547 134.864C104.722 135.212 104.81 135.6 104.81 136.028C104.81 136.457 104.722 136.846 104.547 137.197C104.374 137.547 104.107 137.826 103.744 138.035C103.382 138.241 102.918 138.344 102.352 138.344H100.591V137.562H102.324C102.714 137.562 103.028 137.495 103.265 137.36C103.502 137.225 103.673 137.043 103.78 136.813C103.889 136.581 103.943 136.32 103.943 136.028C103.943 135.737 103.889 135.477 103.78 135.247C103.673 135.018 103.5 134.838 103.261 134.707C103.022 134.575 102.705 134.509 102.31 134.509H100.761V141H99.8807ZM106.228 141V133.727H110.589V134.509H107.109V136.966H110.262V137.747H107.109V141H106.228Z" fill="#1261FF"/>
<path d="M176.5 111.5C183.127 111.5 188.5 116.873 188.5 123.5C188.5 130.127 183.127 135.5 176.5 135.5C169.873 135.5 164.5 130.127 164.5 123.5C164.5 116.873 169.873 111.5 176.5 111.5Z" stroke="#1261FF"/>
<path d="M178.733 122H177.852C177.8 121.747 177.709 121.524 177.579 121.332C177.451 121.141 177.295 120.98 177.11 120.849C176.928 120.717 176.725 120.617 176.503 120.551C176.28 120.485 176.048 120.452 175.807 120.452C175.366 120.452 174.968 120.563 174.61 120.786C174.255 121.008 173.972 121.336 173.761 121.769C173.553 122.202 173.449 122.734 173.449 123.364C173.449 123.993 173.553 124.525 173.761 124.958C173.972 125.391 174.255 125.719 174.61 125.942C174.968 126.164 175.366 126.276 175.807 126.276C176.048 126.276 176.28 126.242 176.503 126.176C176.725 126.11 176.928 126.012 177.11 125.881C177.295 125.749 177.451 125.587 177.579 125.395C177.709 125.201 177.8 124.978 177.852 124.727H178.733C178.667 125.099 178.546 125.432 178.371 125.725C178.196 126.019 177.978 126.268 177.717 126.474C177.457 126.678 177.165 126.833 176.84 126.94C176.518 127.046 176.174 127.099 175.807 127.099C175.187 127.099 174.635 126.948 174.152 126.645C173.669 126.342 173.289 125.911 173.012 125.352C172.735 124.794 172.597 124.131 172.597 123.364C172.597 122.597 172.735 121.934 173.012 121.375C173.289 120.816 173.669 120.385 174.152 120.082C174.635 119.779 175.187 119.628 175.807 119.628C176.174 119.628 176.518 119.681 176.84 119.788C177.165 119.894 177.457 120.05 177.717 120.256C177.978 120.46 178.196 120.709 178.371 121.002C178.546 121.293 178.667 121.626 178.733 122Z" fill="#1261FF"/>
</svg>
