<svg width="380" height="540" viewBox="0 0 380 540" fill="none" xmlns="http://www.w3.org/2000/svg">
<rect x="0.5" y="0.5" width="379" height="539" stroke="black"/>
<line x1="106.998" y1="83.75" x2="272.001" y2="83.75" stroke="black"/>
<line x1="106.997" y1="448.5" x2="271.997" y2="447.5" stroke="black"/>
<line y1="269.5" x2="380" y2="269.5" stroke="black"/>
<circle cx="189" cy="270" r="23.5" stroke="black"/>
<path d="M198.887 325.012C278.651 326.022 343 390.996 343 471V540H342V471C342 390.919 277.081 326 197 326H182C101.919 326 37 390.919 37 471V540H36V471C36 390.366 101.366 325 182 325H197L198.887 325.012Z" fill="black"/>
<path d="M189.5 372C235.063 372 272 408.937 272 454.5V540H271V454.5C271 409.489 234.511 373 189.5 373C144.489 373 108 409.489 108 454.5V540H107V454.5C107 408.937 143.937 372 189.5 372Z" fill="black"/>
<path d="M343 68C343 148.004 278.651 212.978 198.887 213.988L197 214H182C101.366 214 36 148.634 36 68V0H37V68C37 148.081 101.919 213 182 213H197C277.081 213 342 148.081 342 68V0H343V68Z" fill="black"/>
<path d="M272 86.5C272 132.063 235.063 169 189.5 169C143.937 169 107 132.063 107 86.5V0H108V86.5C108 131.511 144.489 168 189.5 168C234.511 168 271 131.511 271 86.5V0H272V86.5Z" fill="black"/>
</svg>
