<svg width="114" height="142" viewBox="0 0 114 142" fill="none" xmlns="http://www.w3.org/2000/svg">
<g clip-path="url(#clip0_125_4)">
<mask id="mask0_125_4" style="mask-type:luminance" maskUnits="userSpaceOnUse" x="11" y="0" width="91" height="118">
<path d="M101.874 0H11.7069V117.217H101.874V0Z" fill="white"/>
</mask>
<g mask="url(#mask0_125_4)">
<path opacity="0.954" fill-rule="evenodd" clip-rule="evenodd" d="M55.1039 18.4788C64.7288 18.2194 72.5962 21.765 78.7058 29.1156C84.6642 37.211 86.0844 46.0562 82.9664 55.6515C79.4344 64.7024 72.9872 70.5432 63.6253 73.1742C52.812 75.4726 43.5992 72.6548 35.9869 64.7208C29.6342 57.1841 27.6161 48.6 29.9323 38.9686C32.618 29.979 38.3176 23.7276 47.031 20.2143C49.662 19.2822 52.353 18.7037 55.1039 18.4788ZM56.5614 21.2779C60.149 21.3114 63.5874 22.0392 66.8768 23.4613C66.172 25.6907 65.0881 27.706 63.6253 29.5074C62.4485 28.6724 61.29 27.7767 60.1494 26.8203C57.4088 24.8914 54.4935 23.2492 51.4038 21.8938C53.124 21.5516 54.8432 21.3463 56.5614 21.2779ZM46.6946 23.4053C52.1723 25.0384 57.031 27.7443 61.2707 31.5228C59.4233 32.8598 57.3678 33.7182 55.1039 34.098C49.8756 34.1649 44.6806 34.6127 39.5188 35.4416C37.5165 35.8391 35.5356 36.287 33.5762 36.7853C36.3128 30.7124 40.6856 26.2523 46.6946 23.4053ZM69.3435 24.7488C71.903 26.2357 74.1453 28.1204 76.0709 30.4031C73.7351 32.1386 71.399 33.8741 69.0632 35.6096C67.9692 34.2181 66.7919 32.8932 65.5313 31.6348C67.3397 29.6476 68.6103 27.3523 69.3435 24.7488ZM77.6406 32.8104C78.5632 33.9411 79.2921 35.21 79.827 36.6173C80.4051 38.0318 80.835 39.4873 81.1164 40.984C78.4523 40.9295 75.9109 41.4521 73.4921 42.5515C72.5735 40.9973 71.6391 39.4484 70.689 37.9049C72.9951 36.1788 75.3124 34.4806 77.6406 32.8104ZM63.5131 33.4823C64.6751 34.6804 65.7591 35.9493 66.7647 37.2891C56.4807 44.7969 46.1654 52.2612 35.8187 59.6823C32.1905 53.9191 31.0506 47.6863 32.399 40.984C32.433 40.7166 32.5265 40.474 32.6793 40.2561C39.4142 38.0531 46.3284 37.008 53.422 37.1211C57.1879 36.9566 60.5516 35.7437 63.5131 33.4823ZM68.2223 39.5284C68.4785 39.6915 68.684 39.9155 68.8389 40.2002C69.5215 41.3765 70.1755 42.5709 70.8012 43.7831C67.9712 45.7696 65.8594 48.3449 64.4661 51.5088C62.8278 57.0565 60.548 62.3188 57.6267 67.296C56.8356 68.6082 55.9574 69.8586 54.9917 71.0468C47.8988 70.4913 42.0685 67.5055 37.5005 62.0895C47.7687 54.5941 58.0092 47.0738 68.2223 39.5284ZM80.1074 43.6711C80.6289 43.7269 81.1522 43.7642 81.6771 43.7831C82.1271 49.3946 80.8751 54.5825 77.921 59.3463C77.5672 54.406 76.4272 49.6475 74.5012 45.0707C76.2827 44.2154 78.1514 43.7489 80.1074 43.6711ZM72.0344 46.4703C72.1791 46.5328 72.2725 46.6447 72.3148 46.8062C74.4735 52.0894 75.4078 57.5758 75.1179 63.2652C70.6426 68.0282 65.1298 70.6222 58.5797 71.0468C62.3298 65.3292 65.2262 59.1896 67.2692 52.6285C68.3755 50.1909 69.9639 48.1382 72.0344 46.4703Z" fill="url(#paint0_linear_125_4)"/>
<path opacity="0.934" fill-rule="evenodd" clip-rule="evenodd" d="M51.7138 0C55.0594 0 58.405 0 61.7506 0C80.5986 3.03323 93.2842 13.5202 99.8073 31.4607C103.066 43.1791 102.416 54.6868 97.8557 65.9839C94.6511 73.9652 91.2279 81.5289 86.1615 88.3962L66.2115 109.834L58.6838 116.516L56.7322 117.212L54.7806 116.516L42.259 104.84L31.6399 93.1292L28.2943 88.3962C19.7369 77.6196 14.3003 65.4157 11.9842 51.7849C10.1259 31.7867 17.6072 16.4275 34.428 5.70747C39.8807 2.76321 45.6425 0.860723 51.7138 0ZM52.2714 4.45461C68.4074 3.58059 81.1861 9.61288 90.6068 22.5514C98.1339 34.9852 99.4351 48.0705 94.51 61.8077C91.2556 70.9091 86.7019 79.2615 80.8487 86.8649C73.8139 96.1639 65.7752 104.516 56.7322 111.922C42.7397 100.57 31.448 87.0203 22.8575 71.2738C18.7017 63.1853 16.4247 54.6011 16.0269 45.5206C16.5725 29.5736 23.6355 17.5091 37.216 9.32685C41.9899 6.83813 47.0083 5.21407 52.2714 4.45461Z" fill="url(#paint1_linear_125_4)" fill-opacity="0.89"/>
</g>
</g>
<path d="M4.096 138V128.416H0.32V127.328H9.008V128.416H5.248V138H4.096ZM10.6081 138V126.48H11.7601V130.912L11.6321 130.608C12.0375 130.384 12.4641 130.208 12.9121 130.08C13.3601 129.941 13.7815 129.872 14.1761 129.872C14.8375 129.872 15.3921 129.995 15.8401 130.24C16.2988 130.485 16.6455 130.859 16.8801 131.36C17.1255 131.851 17.2481 132.485 17.2481 133.264V138H16.0961V133.264C16.0961 132.517 15.9255 131.941 15.5841 131.536C15.2428 131.131 14.7308 130.928 14.0481 130.928C13.6748 130.928 13.2961 130.981 12.9121 131.088C12.5388 131.195 12.1548 131.355 11.7601 131.568V138H10.6081ZM23.1073 138.24C22.3499 138.24 21.6939 138.085 21.1393 137.776C20.5846 137.456 20.1579 136.981 19.8593 136.352C19.5606 135.723 19.4113 134.939 19.4113 134C19.4113 132.624 19.7206 131.595 20.3393 130.912C20.9686 130.219 21.8273 129.872 22.9153 129.872C23.7686 129.872 24.4513 130.064 24.9633 130.448C25.4859 130.832 25.8593 131.349 26.0833 132C26.3073 132.651 26.4139 133.387 26.4033 134.208H19.9873L20.0673 133.152H25.6513L25.2033 133.312C25.1713 132.512 24.9686 131.915 24.5953 131.52C24.2326 131.125 23.6726 130.928 22.9153 130.928C22.3926 130.928 21.9553 131.024 21.6033 131.216C21.2619 131.408 21.0059 131.744 20.8353 132.224C20.6646 132.693 20.5793 133.355 20.5793 134.208C20.5793 135.179 20.8033 135.92 21.2513 136.432C21.7099 136.933 22.3499 137.184 23.1713 137.184C23.5659 137.184 23.9286 137.157 24.2593 137.104C24.5899 137.04 24.8939 136.955 25.1713 136.848C25.4486 136.741 25.6939 136.624 25.9073 136.496V137.68C25.5233 137.861 25.0966 138 24.6273 138.096C24.1686 138.192 23.6619 138.24 23.1073 138.24ZM34.4339 133.92V138H33.2819V127.328H37.0739C38.2685 127.328 39.1805 127.611 39.8099 128.176C40.4499 128.741 40.7699 129.557 40.7699 130.624C40.7699 131.691 40.4499 132.507 39.8099 133.072C39.1805 133.637 38.2685 133.92 37.0739 133.92H34.4339ZM34.4339 132.816H36.9299C37.5272 132.816 38.0019 132.752 38.3539 132.624C38.7165 132.496 38.9885 132.325 39.1699 132.112C39.3512 131.888 39.4685 131.648 39.5219 131.392C39.5859 131.136 39.6179 130.88 39.6179 130.624C39.6179 130.368 39.5859 130.112 39.5219 129.856C39.4685 129.6 39.3512 129.365 39.1699 129.152C38.9885 128.928 38.7165 128.752 38.3539 128.624C38.0019 128.496 37.5272 128.432 36.9299 128.432H34.4339V132.816ZM44.1664 138H43.0144V126.976H44.1664V138ZM49.4851 138.24C49.1331 138.24 48.7758 138.203 48.4131 138.128C48.0611 138.053 47.7305 137.925 47.4211 137.744C47.1225 137.563 46.8771 137.317 46.6851 137.008C46.5038 136.688 46.4131 136.288 46.4131 135.808C46.4131 135.147 46.5358 134.619 46.7811 134.224C47.0371 133.819 47.3838 133.531 47.8211 133.36C48.2691 133.179 48.7811 133.088 49.3571 133.088C49.7945 133.088 50.1731 133.115 50.4931 133.168C50.8131 133.221 51.0958 133.301 51.3411 133.408C51.5971 133.504 51.8265 133.616 52.0291 133.744L52.2531 134.8C52.0078 134.619 51.6505 134.464 51.1811 134.336C50.7225 134.197 50.2158 134.128 49.6611 134.128C48.9891 134.128 48.4718 134.256 48.1091 134.512C47.7465 134.768 47.5651 135.141 47.5651 135.632C47.5651 136.027 47.6718 136.341 47.8851 136.576C48.1091 136.811 48.3865 136.976 48.7171 137.072C49.0585 137.168 49.4051 137.216 49.7571 137.216C50.4505 137.216 50.9731 137.168 51.3251 137.072C51.6878 136.965 51.8691 136.731 51.8691 136.368V132.704C51.8691 132.085 51.6878 131.632 51.3251 131.344C50.9625 131.056 50.4451 130.912 49.7731 130.912C49.3465 130.912 48.8931 130.976 48.4131 131.104C47.9438 131.221 47.5385 131.413 47.1971 131.68V130.528C47.5278 130.315 47.9705 130.155 48.5251 130.048C49.0798 129.931 49.6185 129.872 50.1411 129.872C50.4931 129.872 50.8185 129.909 51.1171 129.984C51.4158 130.048 51.6825 130.149 51.9171 130.288C52.1518 130.416 52.3491 130.587 52.5091 130.8C52.6798 131.003 52.8078 131.243 52.8931 131.52C52.9891 131.787 53.0371 132.091 53.0371 132.432V136.304C53.0371 136.869 52.8665 137.291 52.5251 137.568C52.1945 137.845 51.7571 138.027 51.2131 138.112C50.6798 138.197 50.1038 138.24 49.4851 138.24ZM56.144 141.088C55.984 141.088 55.84 141.072 55.712 141.04C55.584 141.008 55.4773 140.976 55.392 140.944V139.888C55.4667 139.92 55.5627 139.952 55.68 139.984C55.7973 140.016 55.9307 140.032 56.08 140.032C56.4427 140.032 56.736 139.931 56.96 139.728C57.184 139.525 57.3707 139.253 57.52 138.912C57.68 138.571 57.824 138.192 57.952 137.776V138.24L54.56 130.016H55.872L58.528 136.832H58.288L60.928 130.016H62.08L58.656 138.784C58.4107 139.413 58.1387 139.893 57.84 140.224C57.552 140.555 57.2587 140.779 56.96 140.896C56.672 141.024 56.4 141.088 56.144 141.088ZM67.1686 138.24C66.3473 138.24 65.6646 138.08 65.1206 137.76C64.5873 137.429 64.1873 136.965 63.9206 136.368C63.654 135.76 63.5206 135.045 63.5206 134.224C63.5206 133.307 63.6433 132.565 63.8886 132C64.134 131.424 64.4486 130.987 64.8326 130.688C65.2273 130.379 65.654 130.171 66.1126 130.064C66.582 129.947 67.0353 129.888 67.4726 129.888C67.974 129.888 68.4486 129.957 68.8966 130.096C69.3553 130.224 69.7286 130.432 70.0166 130.72C70.3153 131.008 70.4646 131.392 70.4646 131.872V138.336C70.4646 138.656 70.4166 138.981 70.3206 139.312C70.2246 139.643 70.0486 139.947 69.7926 140.224C69.5473 140.512 69.1953 140.741 68.7366 140.912C68.2886 141.083 67.7073 141.168 66.9926 141.168C66.534 141.168 66.1126 141.125 65.7286 141.04C65.3446 140.955 65.0086 140.875 64.7206 140.8V139.712C64.8913 139.755 65.0833 139.803 65.2966 139.856C65.5206 139.92 65.7606 139.973 66.0166 140.016C66.2833 140.059 66.566 140.08 66.8646 140.08C67.59 140.08 68.1233 139.989 68.4646 139.808C68.8166 139.637 69.046 139.419 69.1526 139.152C69.2593 138.896 69.3126 138.635 69.3126 138.368V137.2L69.7126 137.6C69.51 137.707 69.254 137.808 68.9446 137.904C68.6353 138 68.3206 138.08 68.0006 138.144C67.6806 138.208 67.4033 138.24 67.1686 138.24ZM67.1686 137.184C67.51 137.184 67.8673 137.141 68.2406 137.056C68.6246 136.96 68.982 136.816 69.3126 136.624V132.032C69.3126 131.733 69.2273 131.509 69.0566 131.36C68.8966 131.2 68.678 131.093 68.4006 131.04C68.1233 130.976 67.8246 130.944 67.5046 130.944C66.726 130.944 66.1393 131.099 65.7446 131.408C65.35 131.707 65.0833 132.107 64.9446 132.608C64.806 133.109 64.7366 133.648 64.7366 134.224C64.7366 135.099 64.9233 135.813 65.2966 136.368C65.67 136.912 66.294 137.184 67.1686 137.184ZM73.03 138V130.656C73.158 130.603 73.4033 130.512 73.766 130.384C74.1393 130.256 74.582 130.139 75.094 130.032C75.6167 129.925 76.1553 129.872 76.71 129.872C76.7953 129.872 76.8807 129.883 76.966 129.904C77.0513 129.925 77.1367 129.947 77.222 129.968V130.992C76.9447 130.96 76.6727 130.944 76.406 130.944C76.15 130.944 75.8993 130.96 75.654 130.992C75.4087 131.013 75.1633 131.045 74.918 131.088C74.6727 131.131 74.4273 131.173 74.182 131.216V138H73.03ZM81.7788 138.24C80.5308 138.24 79.6028 137.872 78.9948 137.136C78.3974 136.389 78.0988 135.355 78.0988 134.032C78.0988 132.645 78.4134 131.605 79.0428 130.912C79.6828 130.219 80.5841 129.872 81.7468 129.872C82.6108 129.872 83.3148 130.048 83.8588 130.4C84.4028 130.741 84.8028 131.227 85.0588 131.856C85.3148 132.475 85.4427 133.2 85.4427 134.032C85.4427 135.344 85.1228 136.373 84.4828 137.12C83.8534 137.867 82.9521 138.24 81.7788 138.24ZM81.7628 137.184C82.4134 137.184 82.9201 137.045 83.2828 136.768C83.6454 136.48 83.9014 136.101 84.0508 135.632C84.2108 135.152 84.2908 134.619 84.2908 134.032C84.2908 133.403 84.2108 132.859 84.0508 132.4C83.8908 131.931 83.6241 131.568 83.2508 131.312C82.8881 131.056 82.3921 130.928 81.7628 130.928C81.1228 130.928 80.6214 131.067 80.2588 131.344C79.8961 131.621 79.6348 131.995 79.4748 132.464C79.3254 132.923 79.2508 133.445 79.2508 134.032C79.2508 134.971 79.4374 135.733 79.8108 136.32C80.1841 136.896 80.8348 137.184 81.7628 137.184ZM90.9521 138.24C90.2481 138.24 89.6455 138.117 89.1441 137.872C88.6428 137.627 88.2588 137.269 87.9921 136.8C87.7361 136.331 87.6081 135.755 87.6081 135.072V130.016H88.7601V134.816C88.7601 135.627 88.9361 136.224 89.2881 136.608C89.6508 136.981 90.2055 137.168 90.9521 137.168C91.6988 137.168 92.2481 136.981 92.6001 136.608C92.9628 136.224 93.1441 135.627 93.1441 134.816V130.016H94.2961V135.072C94.2961 136.085 94.0028 136.869 93.4161 137.424C92.8401 137.968 92.0188 138.24 90.9521 138.24ZM96.8581 130.656C97.1141 130.528 97.3755 130.416 97.6421 130.32C97.9195 130.213 98.1968 130.128 98.4741 130.064C98.7621 130 99.0501 129.952 99.3381 129.92C99.6368 129.888 99.9355 129.872 100.234 129.872C101.013 129.872 101.631 129.989 102.09 130.224C102.549 130.448 102.879 130.779 103.082 131.216C103.295 131.653 103.402 132.181 103.402 132.8V138H102.25V132.8C102.25 132.608 102.223 132.405 102.17 132.192C102.127 131.979 102.037 131.776 101.898 131.584C101.759 131.381 101.546 131.221 101.258 131.104C100.97 130.976 100.586 130.912 100.106 130.912C99.7755 130.912 99.4341 130.939 99.0821 130.992C98.7301 131.045 98.3728 131.125 98.0101 131.232V138H96.8581V130.656ZM109.28 138.24C108.896 138.24 108.49 138.181 108.064 138.064C107.637 137.957 107.232 137.755 106.848 137.456C106.474 137.147 106.165 136.709 105.92 136.144C105.685 135.568 105.568 134.821 105.568 133.904C105.568 132.667 105.866 131.691 106.464 130.976C107.072 130.251 107.989 129.888 109.216 129.888C109.45 129.888 109.728 129.92 110.048 129.984C110.368 130.048 110.682 130.128 110.992 130.224C111.301 130.32 111.557 130.421 111.76 130.528L111.36 130.928V126.64H112.512V136.624C112.512 136.923 112.405 137.179 112.192 137.392C111.989 137.595 111.722 137.76 111.392 137.888C111.061 138.005 110.709 138.091 110.336 138.144C109.962 138.208 109.61 138.24 109.28 138.24ZM109.296 137.184C109.85 137.184 110.33 137.12 110.736 136.992C111.152 136.864 111.36 136.704 111.36 136.512V131.504C111.029 131.312 110.672 131.173 110.288 131.088C109.914 130.992 109.557 130.944 109.216 130.944C108.64 130.944 108.17 131.072 107.808 131.328C107.456 131.573 107.194 131.92 107.024 132.368C106.864 132.805 106.784 133.317 106.784 133.904C106.784 134.48 106.848 135.019 106.976 135.52C107.104 136.011 107.349 136.411 107.712 136.72C108.074 137.029 108.602 137.184 109.296 137.184Z" fill="url(#paint2_linear_125_4)" fill-opacity="0.89"/>
<defs>
<linearGradient id="paint0_linear_125_4" x1="46.5722" y1="21.4333" x2="77.4747" y2="68.1857" gradientUnits="userSpaceOnUse">
<stop stop-color="#5A2D82"/>
<stop offset="1" stop-color="#F47A20"/>
</linearGradient>
<linearGradient id="paint1_linear_125_4" x1="11.7069" y1="0" x2="101.874" y2="1.82865e-08" gradientUnits="userSpaceOnUse">
<stop stop-color="#5A2D82"/>
<stop offset="1" stop-color="#F47A20"/>
</linearGradient>
<linearGradient id="paint2_linear_125_4" x1="0" y1="122" x2="114.037" y2="122" gradientUnits="userSpaceOnUse">
<stop stop-color="#5A2D82"/>
<stop offset="1" stop-color="#F47A20"/>
</linearGradient>
<clipPath id="clip0_125_4">
<rect width="90.1671" height="117.217" fill="white" transform="translate(11.7069)"/>
</clipPath>
</defs>
</svg>
